<?xml version="1.0" encoding="utf-8"?><!-- Uploaded to: SVG Repo, www.svgrepo.com, Generator: SVG Repo Mixer Tools -->
<svg width="800px" height="800px" viewBox="0 0 64 64" fill="none" xmlns="http://www.w3.org/2000/svg">
<path fill-rule="evenodd" clip-rule="evenodd" d="M34.3341 19.637L12.0471 29.0763L20.4047 48.9435L42.2651 39.5041L34.3341 19.637Z" fill="#2A2941"/>
<path fill-rule="evenodd" clip-rule="evenodd" d="M39.4792 27.3713C41.0604 26.8771 42.742 26.8277 44.3231 27.2478C45.9043 27.6678 47.36 28.5574 48.4392 29.7682C49.5435 30.979 50.2463 32.4864 50.4722 34.0926C50.698 35.6987 50.4722 37.3543 49.7694 38.8122C49.0667 40.2702 47.9373 41.5304 46.5318 42.3706C45.1263 43.2107 43.4949 43.6555 41.8384 43.6061C40.182 43.5567 38.5757 43.0377 37.2455 42.0987C35.8902 41.1597 34.8361 39.8748 34.2337 38.3675C33.8322 37.3049 33.6565 36.1682 33.7318 35.0563C33.782 33.9196 34.058 32.8323 34.5349 31.7945C35.0118 30.7814 35.7145 29.8424 36.5427 29.1011C37.3961 28.3597 38.4 27.7667 39.4792 27.3713Z" fill="#2A2941"/>
<path fill-rule="evenodd" clip-rule="evenodd" d="M36.2667 15.7574L13.9796 25.2462L22.3373 45.1381L44.1475 35.6988L36.2165 15.8069L36.2667 15.7574Z" fill="white"/>
<path fill-rule="evenodd" clip-rule="evenodd" d="M45.2016 36.0446L36.6933 14.7443L12.9757 24.8014L21.9357 46.1018L45.2016 36.0446ZM35.84 16.7211L43.2188 35.2045L22.7639 44.0508L14.9835 25.5674L35.84 16.7211Z" fill="#2A2941"/>
<path fill-rule="evenodd" clip-rule="evenodd" d="M15.7114 30.7813L39.0275 20.8477L38.4 19.4392L15.109 29.3728L15.7114 30.7813Z" fill="#2A2941"/>
<path fill-rule="evenodd" clip-rule="evenodd" d="M40.0063 25.691C41.487 25.1227 43.1184 25.0239 44.6745 25.3698C46.2306 25.7158 47.6612 26.5065 48.7404 27.6432C49.8447 28.7798 50.5725 30.213 50.8486 31.7698C51.1247 33.3266 50.9239 34.908 50.2965 36.3412C49.6439 37.7744 48.5898 39.01 47.2596 39.8501C45.9043 40.6903 44.3482 41.1351 42.742 41.1103C41.1357 41.0856 39.6047 40.5914 38.2745 39.7018C36.9694 38.8123 35.9404 37.552 35.3631 36.0941C34.9616 35.1057 34.7859 34.0679 34.811 33.0053C34.8361 31.9428 35.062 30.9049 35.4886 29.9412C35.9153 28.9775 36.5427 28.1127 37.3208 27.3713C38.0988 26.6547 39.0023 26.0864 40.0063 25.691Z" fill="#A694FE"/>
<path fill-rule="evenodd" clip-rule="evenodd" d="M39.7302 24.999C38.1239 25.6662 36.7435 26.7782 35.7647 28.2114C34.7859 29.6446 34.2588 31.3249 34.2588 33.0546C34.2588 34.7844 34.7608 36.4647 35.7145 37.8979C36.6682 39.3311 38.0486 40.4678 39.6549 41.135C41.2612 41.8021 43.0431 41.9998 44.7498 41.6786C46.4565 41.3574 48.0627 40.5419 49.2925 39.3311C50.5474 38.1203 51.4008 36.5882 51.7773 34.9079C52.1286 33.2276 51.978 31.4732 51.3506 29.867C50.8988 28.8045 50.2714 27.816 49.4431 27.0006C48.6149 26.1851 47.6361 25.518 46.5569 25.0732C45.4776 24.6284 44.3231 24.3813 43.1435 24.3813C41.9639 24.3319 40.8094 24.5543 39.7302 24.999ZM40.2823 26.4075C41.6376 25.8886 43.0933 25.7898 44.4988 26.111C45.9043 26.4323 47.1843 27.1489 48.1882 28.162C49.1922 29.1998 49.8447 30.4848 50.0957 31.8933C50.3467 33.3018 50.171 34.735 49.5937 36.0446C49.0165 37.3543 48.0627 38.4415 46.858 39.2075C45.6533 39.9736 44.2227 40.3689 42.7922 40.3442C41.3616 40.3195 39.9561 39.8747 38.7514 39.084C37.5718 38.2685 36.6431 37.1566 36.1161 35.8222C35.4133 34.0184 35.4635 32.0415 36.2416 30.2624C37.0196 28.5079 38.4753 27.1241 40.2823 26.4075Z" fill="#2A2941"/>
<path fill-rule="evenodd" clip-rule="evenodd" d="M39.5043 25.5922C38.5004 27.9644 38.8267 31.2509 40.0816 34.1914C41.1859 37.0331 43.3945 39.3559 46.2055 40.6408C46.2808 40.6655 46.331 40.6655 46.4063 40.6655C46.4816 40.6655 46.5318 40.6408 46.6071 40.6161C46.6572 40.5914 46.7325 40.542 46.7827 40.4926C46.8329 40.4432 46.858 40.3937 46.8831 40.3196C46.9082 40.2455 46.9082 40.196 46.9082 40.1219C46.9082 40.0478 46.8831 39.9984 46.858 39.9242C46.8329 39.8748 46.7827 39.8007 46.7325 39.7513C46.6823 39.7018 46.6322 39.6771 46.5569 39.6524C43.9718 38.4663 41.989 36.3412 41.0102 33.7219C39.8557 31.0532 39.5043 28.0879 40.4329 25.9134C40.4831 25.7899 40.4831 25.6416 40.4329 25.5428C40.3827 25.4192 40.2823 25.3204 40.1569 25.271C40.0314 25.2215 39.8808 25.2215 39.7804 25.271C39.6549 25.3204 39.5545 25.4192 39.5043 25.5428V25.5922Z" fill="#2A2941"/>
<path fill-rule="evenodd" clip-rule="evenodd" d="M39.8306 26.2098C41.211 26.8276 42.4659 27.7172 43.4698 28.8539C44.4737 29.9905 45.2267 31.3249 45.6533 32.7581C46.5318 35.1797 46.7074 37.7743 46.1553 40.2701C46.1302 40.3442 46.1302 40.3936 46.1302 40.4678C46.1302 40.5419 46.1553 40.5913 46.1804 40.6407C46.2055 40.6902 46.2557 40.7396 46.3059 40.789C46.3561 40.8384 46.4063 40.8631 46.4816 40.8878C46.6071 40.9125 46.7576 40.9125 46.858 40.8384C46.9835 40.7643 47.0588 40.6654 47.109 40.5419C47.7114 37.8485 47.5357 35.0315 46.6071 32.4369C46.1302 30.8554 45.302 29.4222 44.2227 28.1867C43.1184 26.9512 41.7631 25.9627 40.2322 25.3203C40.1067 25.2708 39.9561 25.2708 39.8306 25.3203C39.7051 25.3697 39.6047 25.4685 39.5545 25.5921C39.5043 25.7156 39.5043 25.8392 39.5545 25.9627C39.6298 26.0863 39.7302 26.1851 39.8306 26.2098Z" fill="#2A2941"/>
<path fill-rule="evenodd" clip-rule="evenodd" d="M40.4831 40.5914C41.738 39.1829 43.3192 38.0956 45.0761 37.379C46.8329 36.6624 48.7404 36.3659 50.6478 36.5142C50.7231 36.5389 50.7984 36.5389 50.8737 36.5142C50.949 36.4894 50.9992 36.4647 51.0745 36.4153C51.1247 36.3659 51.1749 36.3165 51.2251 36.2423C51.2502 36.1682 51.2753 36.1188 51.2753 36.0447C51.2753 35.9705 51.2753 35.8964 51.2502 35.8223C51.2251 35.7481 51.1749 35.6987 51.1247 35.6493C51.0745 35.5999 51.0243 35.5505 50.949 35.5257C50.8737 35.501 50.7984 35.4763 50.7482 35.501C48.6902 35.3528 46.6322 35.674 44.6996 36.44C42.7922 37.2061 41.0855 38.3922 39.7051 39.9242C39.6047 40.023 39.5796 40.1713 39.5796 40.2949C39.5796 40.4184 39.6549 40.542 39.7553 40.6408C39.8557 40.7396 40.0063 40.7644 40.1318 40.7644C40.2573 40.7396 40.3827 40.6902 40.4831 40.5914Z" fill="#2A2941"/>
<path fill-rule="evenodd" clip-rule="evenodd" d="M45.4776 25.6416C43.6455 28.0879 39.8306 29.5953 36.1412 29.3976C36.0157 29.4223 35.9153 29.4717 35.84 29.5706C35.7647 29.6694 35.7145 29.7682 35.7145 29.8918C35.7145 30.0153 35.7647 30.1389 35.84 30.213C35.9153 30.3119 36.0408 30.3613 36.1412 30.386C40.2071 30.5837 44.3482 28.9034 46.3561 26.2099C46.4063 26.1605 46.4565 26.0864 46.4816 26.037C46.5067 25.9628 46.5067 25.8887 46.5067 25.8146C46.5067 25.7404 46.4816 25.6663 46.4314 25.6169C46.4063 25.5428 46.3561 25.4933 46.2808 25.4439C46.2306 25.3945 46.1553 25.3698 46.08 25.3451C46.0047 25.3204 45.9294 25.3204 45.8541 25.3451C45.7788 25.3698 45.7035 25.3945 45.6533 25.4439C45.6031 25.4933 45.5529 25.5428 45.5027 25.6169H45.4776V25.6416Z" fill="#2A2941"/>
<path fill-rule="evenodd" clip-rule="evenodd" d="M36.7435 37.6508C37.7224 35.8964 39.2533 34.4879 41.1106 33.623C44.1977 31.9427 48.1129 30.979 50.7482 31.4732C50.8235 31.4979 50.8737 31.4979 50.949 31.4732C51.0243 31.4485 51.0745 31.4238 51.1247 31.3991C51.1749 31.3744 51.2251 31.3249 51.2753 31.2508C51.3255 31.1767 51.3255 31.1273 51.3506 31.0778C51.3757 31.0037 51.3757 30.9543 51.3506 30.8802C51.3255 30.806 51.3004 30.7566 51.2753 30.7072C51.2502 30.6578 51.2 30.6083 51.1247 30.5589C51.0745 30.5342 50.9992 30.5095 50.949 30.4848C48.138 29.9164 43.9216 30.9049 40.6086 32.7087C38.5757 33.6724 36.8941 35.2539 35.84 37.2307C35.8149 37.3049 35.7898 37.3543 35.7647 37.4284C35.7647 37.5026 35.7647 37.5767 35.7898 37.6508C35.8149 37.7249 35.84 37.7744 35.8902 37.8238C35.9404 37.8732 35.9906 37.9226 36.0659 37.9473C36.1412 37.972 36.2165 37.9968 36.2667 37.9968C36.342 37.9968 36.4173 37.972 36.4675 37.9473C36.5427 37.9226 36.5929 37.8732 36.6431 37.8238C36.6933 37.7744 36.7184 37.7002 36.7435 37.6261V37.6508Z" fill="#2A2941"/>
<path fill-rule="evenodd" clip-rule="evenodd" d="M16.8408 27.8902L18.4973 27.1736L17.92 25.7898L16.2635 26.4817L16.8408 27.8902Z" fill="#2A2941"/>
<path fill-rule="evenodd" clip-rule="evenodd" d="M19.7522 26.7041L21.4086 26.0123L20.8063 24.6038L19.1498 25.2957L19.7522 26.7041Z" fill="#2A2941"/>
<path fill-rule="evenodd" clip-rule="evenodd" d="M22.6133 25.5427L24.2698 24.8261L23.6675 23.4176L22.011 24.1095L22.6133 25.5427Z" fill="#2A2941"/>
</svg>