<?xml version="1.0" standalone="no"?>
<!DOCTYPE svg PUBLIC "-//W3C//DTD SVG 20010904//EN"
 "http://www.w3.org/TR/2001/REC-SVG-20010904/DTD/svg10.dtd">
<svg version="1.0" xmlns="http://www.w3.org/2000/svg"
 width="577.000000pt" height="577.000000pt" viewBox="0 0 577.000000 577.000000"
 preserveAspectRatio="xMidYMid meet">
<metadata>
Created by potrace 1.14, written by Peter Selinger 2001-2017
</metadata>
<g transform="translate(0.000000,577.000000) scale(0.100000,-0.100000)"
fill="#000000" stroke="none">
<path d="M2863 5014 c-3 -8 -10 -11 -16 -7 -6 3 -7 1 -3 -6 4 -6 1 -18 -8 -26
-11 -11 -16 -12 -19 -2 -3 7 -6 5 -6 -5 -1 -10 -5 -18 -11 -18 -5 0 -10 -5
-10 -11 0 -6 9 -8 23 -4 17 5 19 4 7 -4 -13 -9 -12 -11 5 -12 13 0 8 -4 -12
-10 -18 -5 -33 -14 -33 -20 0 -6 -11 -20 -25 -31 -14 -11 -23 -24 -20 -29 4
-5 2 -9 -3 -9 -10 0 -36 -58 -33 -73 1 -5 -14 -27 -32 -50 -30 -38 -60 -101
-72 -153 -2 -11 -9 -39 -15 -64 -12 -48 -12 -149 0 -165 4 -5 10 -26 13 -45 3
-19 9 -49 12 -65 6 -25 2 -35 -24 -57 -53 -48 -56 -158 -5 -228 16 -22 35 -52
42 -65 12 -23 23 -29 44 -26 7 1 13 -15 23 -69 4 -19 16 -52 26 -72 11 -21 19
-39 19 -41 0 -7 -73 -26 -119 -32 -23 -3 -47 -7 -51 -10 -5 -3 -46 -9 -92 -14
-136 -13 -296 -105 -314 -178 -10 -40 -34 -84 -55 -102 -11 -9 -21 -27 -24
-40 -2 -13 -6 -25 -7 -26 -54 -35 -73 -54 -84 -79 -7 -17 -45 -65 -84 -106
-74 -78 -105 -125 -147 -224 -13 -32 -33 -66 -44 -75 -11 -9 -21 -31 -23 -48
-1 -18 -12 -43 -24 -56 -12 -13 -22 -29 -22 -35 0 -7 -4 -12 -8 -12 -10 0 -29
-59 -36 -115 -3 -22 -11 -42 -18 -44 -26 -9 -97 -94 -121 -144 -60 -128 -77
-209 -77 -374 0 -126 7 -164 35 -201 26 -34 77 -81 95 -87 11 -4 20 -14 21
-23 4 -85 23 -115 82 -126 14 -2 36 -14 48 -24 39 -37 75 -46 122 -32 45 14
96 14 111 -1 9 -8 -3 -135 -18 -199 -4 -14 -9 -48 -11 -76 -4 -53 -8 -78 -27
-179 -10 -57 -12 -282 -3 -377 2 -24 6 -76 10 -115 5 -52 2 -91 -9 -136 -9
-34 -14 -72 -11 -84 2 -13 -1 -25 -6 -28 -5 -4 -7 -11 -3 -16 6 -10 10 -41 18
-135 3 -33 8 -68 12 -77 6 -16 87 -17 1200 -17 948 0 1194 3 1195 13 7 89 -36
277 -91 392 -51 107 -62 152 -65 265 -2 85 -12 207 -20 250 -2 9 -6 48 -10 86
-3 38 -12 113 -19 167 -13 104 -12 108 34 122 14 4 88 33 165 65 77 32 166 63
198 69 84 15 109 30 135 81 16 33 22 62 22 111 0 37 7 86 15 109 20 56 19 111
-2 154 -15 32 -15 39 -1 82 10 33 12 59 6 88 -4 23 -10 61 -13 86 -19 164 -40
215 -104 252 -53 30 -85 87 -82 148 1 35 -5 56 -24 84 -14 20 -32 50 -40 66
-8 16 -27 40 -41 53 -16 15 -26 37 -29 61 -2 21 -10 43 -18 49 -8 7 -34 48
-58 92 -23 44 -48 85 -53 91 -6 6 -47 50 -91 98 -54 58 -87 86 -102 86 -12 0
-34 5 -50 11 l-28 10 48 46 48 45 -28 24 c-15 13 -31 24 -35 24 -4 0 -15 14
-25 30 -9 17 -30 36 -45 43 -16 6 -28 15 -28 19 0 5 -6 8 -13 8 -7 0 -26 14
-43 31 -56 59 -120 82 -313 109 -41 6 -76 12 -78 14 -2 1 4 19 12 39 8 20 18
53 21 74 9 62 35 113 58 113 10 0 17 3 13 6 -3 3 8 20 24 38 43 44 59 78 60
129 3 55 -28 109 -72 127 l-31 13 8 86 c21 234 2 335 -81 446 -16 22 -40 51
-53 65 -13 14 -32 40 -44 58 -12 20 -26 31 -34 28 -8 -3 -13 -2 -13 2 3 20
-15 52 -32 57 -10 4 -19 11 -19 16 0 5 -7 9 -16 9 -9 0 -23 8 -31 18 -9 10
-11 11 -7 2 5 -10 0 -9 -14 4 -12 11 -38 20 -57 21 -20 1 -39 5 -42 9 -3 3
-14 6 -24 6 -9 0 -19 4 -21 10 -5 16 -99 20 -105 4z m20 -7 c3 -8 -1 -14 -8
-14 -7 0 -11 6 -8 14 3 7 6 13 8 13 2 0 5 -6 8 -13z"/>
</g>
</svg>
